<mxfile host="app.diagrams.net" modified="2024-02-08T07:37:08.179Z" agent="Mozilla/5.0 (Windows NT 10.0; Win64; x64) AppleWebKit/537.36 (KHTML, like Gecko) Chrome/121.0.0.0 Safari/537.36" version="23.1.1" etag="4Ou5_1PHT-As0I8pWlUR" type="github">
  <diagram name="Page-1" id="GLsYwR4bpoCbrgy6YhnN">
    <mxGraphModel>
      <root>
        <mxCell id="0" />
        <mxCell id="1" parent="0" />
      </root>
    </mxGraphModel>
  </diagram>
</mxfile>
